Coordinates
version=1
nRows=29
nColumns=24
inDegrees=yes

Units are S.I. units (second, meters, Newtons, ...)
Angles are in degrees.

endheader
time	pelvis_tilt	pelvis_list	pelvis_rotation	pelvis_tx	pelvis_ty	pelvis_tz	hip_flexion_r	hip_adduction_r	hip_rotation_r	knee_angle_r	ankle_angle_r	subtalar_angle_r	mtp_angle_r	hip_flexion_l	hip_adduction_l	hip_rotation_l	knee_angle_l	ankle_angle_l	subtalar_angle_l	mtp_angle_l	lumbar_extension	lumbar_bending	lumbar_rotation
      4.84500000	     -0.41477046	      4.68260510	      1.37046247	      0.87716376	      1.00763804	     -0.19427135	     22.79392900	     -2.12865553	      4.81123987	     -5.25041431	     12.59943535	     -5.10851662	      0.00000000	    -17.53591515	      8.04680369	      5.08298903	     -6.70917163	     14.77854482	     -7.02874319	      0.00000000	    -11.31976637	     -4.35169975	     -7.81249804
      4.85000000	     -0.28854676	      4.63654728	      1.32085207	      0.88447385	      1.00715715	     -0.19383162	     22.74790031	     -1.96865822	      4.72105474	     -6.08316565	     12.94212398	     -4.60519325	      0.00000000	    -17.65628492	      7.94532279	      4.70725738	     -7.55593794	     14.92324381	     -6.26972368	      0.00000000	    -11.41560655	     -4.29354916	     -7.69989773
      4.85500000	     -0.16948066	      4.57113862	      1.28383673	      0.89186949	      1.00670869	     -0.19340145	     22.69566441	     -1.79715544	      4.59338429	     -6.96257716	     13.22225596	     -4.06838787	      0.00000000	    -17.75120637	      7.81752010	      4.30464606	     -8.43827486	     15.03296006	     -5.49937957	      0.00000000	    -11.48971901	     -4.20879449	     -7.58870947
      4.86000000	     -0.05687473	      4.49678757	      1.25948928	      0.89931423	      1.00630063	     -0.19297411	     22.63694570	     -1.62537588	      4.44098976	     -7.86180709	     13.41074258	     -3.53436760	      0.00000000	    -17.81738413	      7.67293834	      3.88646074	     -9.36091948	     15.10170066	     -4.72225448	      0.00000000	    -11.55041840	     -4.11464701	     -7.47773299
      4.86500000	      0.03647084	      4.39391583	      1.24868281	      0.90680387	      1.00594160	     -0.19257123	     22.58284036	     -1.43605912	      4.24639781	     -8.74889295	     13.45848798	     -3.03992561	      0.00000000	    -17.83552636	      7.49431972	      3.42454449	    -10.32836329	     15.11605377	     -3.96214757	      0.00000000	    -11.57954181	     -3.97838873	     -7.38188992
      4.87000000	      0.10756387	      4.26531456	      1.25422990	      0.91431175	      1.00564785	     -0.19213204	     22.53345068	     -1.23138911	      4.06330232	     -9.59871767	     13.35053999	     -2.60030226	      0.00000000	    -17.80638531	      7.27616367	      2.94985929	    -11.33005902	     15.07346484	     -3.20313956	      0.00000000	    -11.58294009	     -3.82451435	     -7.29301111
      4.87500000	      0.15558582	      4.10285505	      1.26573727	      0.92182903	      1.00542298	     -0.19173985	     22.49389411	     -1.00441406	      3.88695659	    -10.39519793	     13.08111946	     -2.26096817	      0.00000000	    -17.71944070	      7.02079453	      2.45066744	    -12.38486179	     14.98143668	     -2.45949722	      0.00000000	    -11.55425961	     -3.62123306	     -7.19828742
      4.88000000	      0.17987436	      3.90610691	      1.28883062	      0.92931566	      1.00529874	     -0.19133191	     22.46915289	     -0.75015606	      3.72646855	    -11.13521150	     12.64690127	     -2.05111005	      0.00000000	    -17.56858996	      6.72119120	      1.92651242	    -13.49133888	     14.80892103	     -1.75636959	      0.00000000	    -11.50454430	     -3.38528310	     -7.09965418
      4.88500000	      0.17991047	      3.67453850	      1.31486646	      0.93677595	      1.00527291	     -0.19094266	     22.46199240	     -0.46655621	      3.59818262	    -11.82260750	     12.08773899	     -1.98154398	      0.00000000	    -17.34757402	      6.38051018	      1.37017562	    -14.66194011	     14.55957010	     -1.07743299	      0.00000000	    -11.42808276	     -3.10524413	     -6.99664031
      4.89000000	      0.15406571	      3.41130721	      1.33556573	      0.94415756	      1.00530404	     -0.19055487	     22.48996300	     -0.14741606	      3.55708974	    -12.49515846	     11.45241194	     -2.08984357	      0.00000000	    -17.04039261	      6.00197224	      0.76663096	    -15.92179107	     14.27793950	     -0.40527951	      0.00000000	    -11.33646690	     -2.78353763	     -6.88112044
      4.89500000	      0.10911279	      3.12965437	      1.37086055	      0.95156021	      1.00545496	     -0.19017586	     22.52900380	      0.18669039	      3.55569854	    -13.14695639	     10.77549388	     -2.33000201	      0.00000000	    -16.67479460	      5.59145959	      0.14408988	    -17.22691433	     13.84152796	      0.18877690	      0.00000000	    -11.21338935	     -2.45084645	     -6.76924620
      4.90000000	      0.05225295	      2.84577205	      1.40359350	      0.95894255	      1.00566996	     -0.18984924	     22.58328956	      0.52408755	      3.62116220	    -13.81055954	     10.13459610	     -2.67414827	      0.00000000	    -16.24555183	      5.17293238	     -0.49751940	    -18.60545391	     13.29817928	      0.73535656	      0.00000000	    -11.07788432	     -2.10396567	     -6.65994205
      4.90500000	     -0.00632023	      2.56564391	      1.45234514	      0.96634185	      1.00596322	     -0.18953422	     22.63701160	      0.85495575	      3.69738101	    -14.49414688	      9.58884006	     -3.05759897	      0.00000000	    -15.76670074	      4.73940841	     -1.16078568	    -20.04485485	     12.60328059	      1.20940917	      0.00000000	    -10.93376371	     -1.77169054	     -6.55303440
      4.91000000	     -0.06345822	      2.30342064	      1.49372926	      0.97370818	      1.00628438	     -0.18923579	     22.69855919	      1.17315558	      3.80434917	    -15.21956842	      9.17712011	     -3.45444380	      0.00000000	    -15.23287619	      4.31401465	     -1.84562798	    -21.56006323	     11.77817136	      1.60940260	      0.00000000	    -10.79987913	     -1.45033372	     -6.45836591
      4.91500000	     -0.12832934	      2.05574083	      1.53206518	      0.98105838	      1.00660751	     -0.18897422	     22.76882656	      1.47726552	      3.92332304	    -15.97210468	      8.91733555	     -3.82409797	      0.00000000	    -14.63679159	      3.88906562	     -2.56596672	    -23.14230551	     10.81608435	      1.93903522	      0.00000000	    -10.65647019	     -1.13721853	     -6.37524171
      4.92000000	     -0.17745038	      1.82646711	      1.57711186	      0.98842449	      1.00696854	     -0.18870908	     22.81371471	      1.75836769	      3.97435531	    -16.73127467	      8.83706716	     -4.10147584	      0.00000000	    -14.00954103	      3.46029263	     -3.30090294	    -24.77610516	      9.66472090	      2.17270048	      0.00000000	    -10.52866679	     -0.85214294	     -6.29379023
      4.92500000	     -0.21858892	      1.61502677	      1.62292422	      0.99576876	      1.00734107	     -0.18844005	     22.83940097	      2.01914084	      3.98628321	    -17.48601820	      8.91786895	     -4.29501678	      0.00000000	    -13.33883473	      3.02736217	     -4.05947281	    -26.46274873	      8.33399675	      2.30751084	      0.00000000	    -10.41239795	     -0.58905563	     -6.22639817
      4.93000000	     -0.31716967	      1.44091968	      1.66042950	      1.00308768	      1.00759879	     -0.18810756	     22.91380486	      2.24712364	      3.98581837	    -18.22811993	      9.16737795	     -4.42287065	      0.00000000	    -12.55127570	      2.60444892	     -4.86284387	    -28.21230647	      6.84286936	      2.37833616	      0.00000000	    -10.22714142	     -0.37863119	     -6.17184807
      4.93500000	     -0.25494275	      1.23138203	      1.72719762	      1.01036894	      1.00812535	     -0.18783890	     22.78233117	      2.49169128	      3.82164028	    -18.89616775	      9.46230061	     -4.50536303	      0.00000000	    -11.90483685	      2.11994805	     -5.61369844	    -29.95324140	      5.10393105	      2.27181849	      0.00000000	    -10.25069927	     -0.11415302	     -6.10794521
      4.94000000	     -0.44428427	      1.09799054	      1.72072990	      1.01752231	      1.00826027	     -0.18742673	     22.94033886	      2.67674627	      3.71128923	    -19.60217495	      9.88737593	     -4.42813525	      0.00000000	    -10.92933821	      1.70206782	     -6.45023328	    -31.76434731	      3.21845143	      2.13468098	      0.00000000	     -9.98698366	      0.03999296	     -6.02181092
      4.94500000	     -0.36789400	      0.84450896	      1.77885943	      1.02475699	      1.00880041	     -0.18705709	     22.72450844	      2.96849546	      3.52184779	    -20.13715337	     10.26680350	     -4.46442645	      0.00000000	    -10.22562653	      1.11240712	     -7.22946411	    -33.53992691	      1.14200609	      1.86472067	      0.00000000	    -10.03239026	      0.34866992	     -5.98008828
      4.95000000	     -0.48040897	      0.69151498	      1.78063655	      1.03182171	      1.00904068	     -0.18660836	     22.72400232	      3.16647212	      3.35250678	    -20.68875706	     10.76884766	     -4.37645690	      0.00000000	     -9.27826881	      0.62807305	     -8.02283830	    -35.33495487	     -1.12111562	      1.42384750	      0.00000000	     -9.87758262	      0.52121005	     -5.89113796
      4.95500000	     -0.51044501	      0.45512902	      1.82607954	      1.03884488	      1.00941434	     -0.18613133	     22.58230936	      3.44073194	      3.12990028	    -21.12389732	     11.17935438	     -4.38952796	      0.00000000	     -8.38945952	      0.01953158	     -8.75008544	    -37.13175930	     -3.48156713	      0.91873925	      0.00000000	     -9.83058800	      0.78449731	     -5.82795095
      4.96000000	     -0.45144134	      0.13240578	      1.86876970	      1.04590715	      1.00988749	     -0.18560506	     22.28946958	      3.80790067	      2.88547996	    -21.44383379	     11.56710902	     -4.44277964	      0.00000000	     -7.58678624	     -0.70935599	     -9.47390547	    -38.91366253	     -5.87525288	      0.38107464	      0.00000000	     -9.88216519	      1.15211383	     -5.72928846
      4.96500000	     -0.51927319	     -0.07737415	      1.90923211	      1.05277833	      1.01022511	     -0.18508062	     22.12733961	      4.05649868	      2.70165111	    -21.75065892	     11.98221674	     -4.46103553	      0.00000000	     -6.62438201	     -1.29702839	    -10.07023620	    -40.65900316	     -8.45680629	     -0.40683300	      0.00000000	     -9.81145571	      1.36772702	     -5.67761347
      4.97000000	     -0.57194449	     -0.36338564	      1.96596190	      1.05958883	      1.01054949	     -0.18455992	     21.91825134	      4.37370597	      2.46271206	    -21.98163462	     12.36890105	     -4.47901915	      0.00000000	     -5.65009009	     -1.98122041	    -10.61977475	    -42.42238490	    -10.96677210	     -1.22233126	      0.00000000	     -9.76990899	      1.67587614	     -5.59822543
      4.97500000	     -0.59130936	     -0.69396301	      2.02375212	      1.06636689	      1.01093102	     -0.18407062	     21.64162301	      4.73472384	      2.23508258	    -22.14614845	     12.72188324	     -4.49482931	      0.00000000	     -4.70287971	     -2.69983207	    -11.07381564	    -44.15732723	    -13.44883712	     -2.10864359	      0.00000000	     -9.77222875	      2.04273881	     -5.49461146
      4.98000000	     -0.74413905	     -0.94461083	      2.09628197	      1.07295609	      1.01110841	     -0.18360546	     21.51125909	      4.99262823	      1.94964990	    -22.30453072	     13.15463204	     -4.39914872	      0.00000000	     -3.57387749	     -3.32583793	    -11.46697882	    -45.90107026	    -15.88981049	     -3.12756016	      0.00000000	     -9.63933738	      2.29683749	     -5.43281094
      4.98500000	     -0.74462187	     -1.27098075	      2.20278669	      1.07956739	      1.01154141	     -0.18317689	     21.15678621	      5.33774020	      1.73155052	    -22.33750094	     13.46348001	     -4.45892574	      0.00000000	     -2.60317440	     -4.02276114	    -11.74596091	    -47.59713352	    -18.23535637	     -4.15733296	      0.00000000	     -9.68553607	      2.64959270	     -5.36747968
